<svg id="Ebene_1" data-name="Ebene 1" xmlns="http://www.w3.org/2000/svg" viewBox="0 0 200 200"><defs><style>.cls-1{fill:#5367fd;}</style></defs><title>logo</title><path class="cls-1" d="M122.34649,37.7087a25.08416,25.08416,0,0,0-35.36,0l-51.98,51.98a25.084,25.084,0,0,0,0,35.36l48.18,48.17,68.96-68.96a5.00349,5.00349,0,0,0,0-7.06995l-47.4-47.4a5.02174,5.02174,0,0,1,0-7.07l.42-.42a5.02174,5.02174,0,0,1,7.07,0l47.4,47.4a5.00345,5.00345,0,0,0,7.07,0l3.81-3.81Zm-16.59,77.54a6.00287,6.00287,0,0,1-7.35,7.35l-29.15-7.81a5.997,5.997,0,0,1-2.69-10.04l21.34-21.34a5.99233,5.99233,0,0,1,10.03,2.69Z"/></svg>